<svg viewBox="0 0 858 902" version="1.1" xmlns="http://www.w3.org/2000/svg" xmlns:xlink="http://www.w3.org/1999/xlink">
  <g stroke="none" stroke-width="1" fill="none" fill-rule="evenodd">
    <g transform="translate(743 575)" fill="#2B5833" opacity="0.703180804">
      <ellipse cx="26" cy="28" rx="17" ry="18"/>
      <ellipse cx="47" cy="18" rx="17" ry="18"/>
      <ellipse cx="49" cy="51" rx="17" ry="18"/>
      <ellipse cx="26" cy="51" rx="17" ry="18"/>
      <ellipse cx="58" cy="37" rx="17" ry="18"/>
      <ellipse cx="78" cy="51" rx="17" ry="18"/>
      <ellipse cx="49" cy="85" rx="17" ry="18"/>
      <ellipse cx="33" cy="69" rx="17" ry="18"/>
      <ellipse cx="74" cy="74" rx="17" ry="18"/>
      <ellipse cx="59" cy="69" rx="17" ry="18"/>
      <ellipse cx="17" cy="51" rx="17" ry="18"/>
      <ellipse cx="72" cy="27" rx="17" ry="18"/>
      <ellipse cx="39" cy="44" rx="17" ry="18"/>
      <ellipse cx="24" cy="74" rx="17" ry="18"/>
    </g>
    <g transform="translate(707 575)" fill="#2B5833" opacity="0.703180804">
      <ellipse cx="26" cy="28" rx="17" ry="18"/>
      <ellipse cx="47" cy="18" rx="17" ry="18"/>
      <ellipse cx="49" cy="51" rx="17" ry="18"/>
      <ellipse cx="26" cy="51" rx="17" ry="18"/>
      <ellipse cx="58" cy="37" rx="17" ry="18"/>
      <ellipse cx="78" cy="51" rx="17" ry="18"/>
      <ellipse cx="49" cy="85" rx="17" ry="18"/>
      <ellipse cx="33" cy="69" rx="17" ry="18"/>
      <ellipse cx="74" cy="74" rx="17" ry="18"/>
      <ellipse cx="59" cy="69" rx="17" ry="18"/>
      <ellipse cx="17" cy="51" rx="17" ry="18"/>
      <ellipse cx="72" cy="27" rx="17" ry="18"/>
      <ellipse cx="39" cy="44" rx="17" ry="18"/>
      <ellipse cx="24" cy="74" rx="17" ry="18"/>
    </g>
    <g transform="translate(669 568)" fill="#2B5833" opacity="0.703180804">
      <ellipse cx="26" cy="28" rx="17" ry="18"/>
      <ellipse cx="47" cy="18" rx="17" ry="18"/>
      <ellipse cx="49" cy="51" rx="17" ry="18"/>
      <ellipse cx="26" cy="51" rx="17" ry="18"/>
      <ellipse cx="58" cy="37" rx="17" ry="18"/>
      <ellipse cx="78" cy="51" rx="17" ry="18"/>
      <ellipse cx="49" cy="85" rx="17" ry="18"/>
      <ellipse cx="33" cy="69" rx="17" ry="18"/>
      <ellipse cx="74" cy="74" rx="17" ry="18"/>
      <ellipse cx="59" cy="69" rx="17" ry="18"/>
      <ellipse cx="17" cy="51" rx="17" ry="18"/>
      <ellipse cx="72" cy="27" rx="17" ry="18"/>
      <ellipse cx="39" cy="44" rx="17" ry="18"/>
      <ellipse cx="24" cy="74" rx="17" ry="18"/>
    </g>
    <path stroke="#979797" fill="#ECDCBD" d="M87 224h146v421.24H87z"/>
    <path d="M86.5 223.5H234" stroke="#ABA292" stroke-width="2" stroke-linecap="square"/>
    <path d="M86.5 235.5H234" stroke="#ABA292" stroke-width="5" stroke-linecap="square"/>
    <path d="M130.1 275c-.07-.82-.1-1.65-.1-2.5 0-10.22 4.7-18.5 10.5-18.5s10.5 8.28 10.5 18.5c0 .85-.03 1.68-.1 2.5h.1v72h-21v-72h.1zM167.1 275c-.07-.82-.1-1.65-.1-2.5 0-10.22 4.7-18.5 10.5-18.5s10.5 8.28 10.5 18.5c0 .85-.03 1.68-.1 2.5h.1v72h-21v-72h.1zM131.04 374a3.09 3.09 0 0 1-.04-.5c0-3.04 4.48-5.5 10-5.5s10 2.46 10 5.5c0 .17-.01.34-.04.5h.04v22h-20v-22h.04zM168.04 374a3.09 3.09 0 0 1-.04-.5c0-3.04 4.48-5.5 10-5.5s10 2.46 10 5.5c0 .17-.01.34-.04.5h.04v22h-20v-22h.04z" fill="#373A41"/>
    <path d="M141.1 385c-.07-.82-.1-1.66-.1-2.5 0-12.98 8.06-23.5 18-23.5s18 10.52 18 23.5c0 .84-.03 1.68-.1 2.5h.1v21h-36v-21h.1z" stroke="#F5EAD4" stroke-width="2"/>
    <g transform="translate(121 413)">
      <path d="M5.06 39c-.04-.66-.06-1.33-.06-2 0-12.15 6.72-22 15-22 8.28 0 15 9.85 15 22 0 .67-.02 1.34-.06 2H35v20H5V39h.06z" stroke="#F5EAD4" stroke-width="2"/>
      <path d="M47.04 31a3.09 3.09 0 0 1-.04-.5c0-3.04 4.48-5.5 10-5.5s10 2.46 10 5.5c0 .17-.01.34-.04.5H67v22H47V31h.04zM10.04 31a3.09 3.09 0 0 1-.04-.5c0-3.04 4.48-5.5 10-5.5s10 2.46 10 5.5c0 .17-.01.34-.04.5H30v22H10V31h.04z" fill="#373A41"/>
      <path d="M42.06 39c-.04-.66-.06-1.33-.06-2 0-12.15 6.72-22 15-22 8.28 0 15 9.85 15 22 0 .67-.02 1.34-.06 2H72v20H42V39h.06z" stroke="#F5EAD4" stroke-width="2"/>
      <path d="M.13 33C.04 32.18 0 31.34 0 30.5 0 13.66 17.24 0 38.5 0S77 13.66 77 30.5c0 .84-.04 1.68-.13 2.5H77v28H0V33h.13z" stroke="#F5EAD4" stroke-width="2"/>
      <circle fill="#373A41" opacity="0.686662946" cx="38.5" cy="11.5" r="7.5"/>
    </g>
    <path d="M159.1 385c-.07-.82-.1-1.66-.1-2.5 0-12.98 8.06-23.5 18-23.5s18 10.52 18 23.5c0 .84-.03 1.68-.1 2.5h.1v21h-36v-21h.1zM124.09 303c-.06-1.8-.09-3.64-.09-5.5 0-29.55 7.39-53.5 16.5-53.5s16.5 23.95 16.5 53.5c0 1.86-.03 3.7-.09 5.5h.09v48h-33v-48h.09zM161.09 303c-.06-1.8-.09-3.64-.09-5.5 0-29.55 7.39-53.5 16.5-53.5s16.5 23.95 16.5 53.5c0 1.86-.03 3.7-.09 5.5h.09v48h-33v-48h.09z" stroke="#F5EAD4" stroke-width="2"/>
    <path d="M177.1 385c-.07-.82-.1-1.66-.1-2.5 0-12.98 8.06-23.5 18-23.5s18 10.52 18 23.5c0 .84-.03 1.68-.1 2.5h.1v21h-36v-21h.1z" stroke="#F5EAD4" stroke-width="2"/>
    <path d="M196.1 385c-.07-.82-.1-1.66-.1-2.5 0-12.98 7.84-23.5 17.5-23.5s17.5 10.52 17.5 23.5c0 .84-.03 1.68-.1 2.5h.1v21h-35v-21h.1zM125.1 384c-.07-.82-.1-1.66-.1-2.5 0-12.98 7.61-23.5 17-23.5s17 10.52 17 23.5c0 .84-.03 1.68-.1 2.5h.1v21h-34v-21h.1z" stroke="#F5EAD4" stroke-width="2"/>
    <path d="M105.1 385c-.07-.82-.1-1.66-.1-2.5 0-12.98 8.06-23.5 18-23.5s18 10.52 18 23.5c0 .84-.03 1.68-.1 2.5h.1v21h-36v-21h.1z" stroke="#F5EAD4" stroke-width="2"/>
    <path d="M89.1 384c-.07-.82-.1-1.66-.1-2.5 0-12.98 8.06-23.5 18-23.5s18 10.52 18 23.5c0 .84-.03 1.68-.1 2.5h.1v21H89v-21h.1z" stroke="#F5EAD4" stroke-width="2"/>
    <path d="M85 407h149M85 359h149" stroke="#ABA292" stroke-width="3" stroke-linecap="square"/>
    <path d="M204.5 358.5v287" stroke="#979797" stroke-width="2" opacity="0.547154018" stroke-linecap="square"/>
    <path d="M114.5 358.5v287" stroke="#979797" stroke-width="2" opacity="0.5640625" stroke-linecap="square"/>
    <g transform="translate(255 222)">
      <path stroke="#979797" fill="#ECDCBD" d="M2 2h146v421.24H2z"/>
      <path d="M1.5 1.5H149" stroke="#ABA292" stroke-width="2" stroke-linecap="square"/>
      <path d="M1.5 13.5H149" stroke="#ABA292" stroke-width="5" stroke-linecap="square"/>
      <path d="M45.1 53c-.07-.82-.1-1.65-.1-2.5C45 40.28 49.7 32 55.5 32S66 40.28 66 50.5c0 .85-.03 1.68-.1 2.5h.1v72H45V53h.1zM82.1 53c-.07-.82-.1-1.65-.1-2.5C82 40.28 86.7 32 92.5 32S103 40.28 103 50.5c0 .85-.03 1.68-.1 2.5h.1v72H82V53h.1zM46.04 152a3.09 3.09 0 0 1-.04-.5c0-3.04 4.48-5.5 10-5.5s10 2.46 10 5.5c0 .17-.01.34-.04.5H66v22H46v-22h.04zM83.04 152a3.09 3.09 0 0 1-.04-.5c0-3.04 4.48-5.5 10-5.5s10 2.46 10 5.5c0 .17-.01.34-.04.5h.04v22H83v-22h.04zM46.04 222a3.09 3.09 0 0 1-.04-.5c0-3.04 4.48-5.5 10-5.5s10 2.46 10 5.5c0 .17-.01.34-.04.5H66v22H46v-22h.04zM83.04 222a3.09 3.09 0 0 1-.04-.5c0-3.04 4.48-5.5 10-5.5s10 2.46 10 5.5c0 .17-.01.34-.04.5h.04v22H83v-22h.04z" fill="#373A41"/>
      <path d="M56.1 163c-.07-.82-.1-1.66-.1-2.5 0-12.98 8.06-23.5 18-23.5s18 10.52 18 23.5c0 .84-.03 1.68-.1 2.5h.1v21H56v-21h.1zM41.06 230c-.04-.66-.06-1.33-.06-2 0-12.15 6.72-22 15-22 8.28 0 15 9.85 15 22 0 .67-.02 1.34-.06 2H71v20H41v-20h.06zM78.06 230c-.04-.66-.06-1.33-.06-2 0-12.15 6.72-22 15-22 8.28 0 15 9.85 15 22 0 .67-.02 1.34-.06 2h.06v20H78v-20h.06z" stroke="#F5EAD4" stroke-width="2"/>
      <path d="M36.13 224c-.09-.82-.13-1.66-.13-2.5 0-16.84 17.24-30.5 38.5-30.5s38.5 13.66 38.5 30.5c0 .84-.04 1.68-.13 2.5h.13v28H36v-28h.13zM74.1 163c-.07-.82-.1-1.66-.1-2.5 0-12.98 8.06-23.5 18-23.5s18 10.52 18 23.5c0 .84-.03 1.68-.1 2.5h.1v21H74v-21h.1zM39.09 81c-.06-1.8-.09-3.64-.09-5.5C39 45.95 46.39 22 55.5 22S72 45.95 72 75.5c0 1.86-.03 3.7-.09 5.5H72v48H39V81h.09zM76.09 81c-.06-1.8-.09-3.64-.09-5.5C76 45.95 83.39 22 92.5 22S109 45.95 109 75.5c0 1.86-.03 3.7-.09 5.5h.09v48H76V81h.09z" stroke="#F5EAD4" stroke-width="2"/>
      <path d="M92.1 163c-.07-.82-.1-1.66-.1-2.5 0-12.98 8.06-23.5 18-23.5s18 10.52 18 23.5c0 .84-.03 1.68-.1 2.5h.1v21H92v-21h.1z" stroke="#F5EAD4" stroke-width="2"/>
      <path d="M111.1 163c-.07-.82-.1-1.66-.1-2.5 0-12.98 7.84-23.5 17.5-23.5s17.5 10.52 17.5 23.5c0 .84-.03 1.68-.1 2.5h.1v21h-35v-21h.1zM40.1 162c-.07-.82-.1-1.66-.1-2.5 0-12.98 7.61-23.5 17-23.5s17 10.52 17 23.5c0 .84-.03 1.68-.1 2.5h.1v21H40v-21h.1z" stroke="#F5EAD4" stroke-width="2"/>
      <path d="M20.1 163c-.07-.82-.1-1.66-.1-2.5 0-12.98 8.06-23.5 18-23.5s18 10.52 18 23.5c0 .84-.03 1.68-.1 2.5h.1v21H20v-21h.1z" stroke="#F5EAD4" stroke-width="2"/>
      <path d="M4.1 162c-.07-.82-.1-1.66-.1-2.5 0-12.98 8.06-23.5 18-23.5s18 10.52 18 23.5c0 .84-.03 1.68-.1 2.5h.1v21H4v-21h.1z" stroke="#F5EAD4" stroke-width="2"/>
      <path d="M0 185h149M0 137h149" stroke="#ABA292" stroke-width="3" stroke-linecap="square"/>
      <path d="M119.5 136.5v287" stroke="#979797" stroke-width="2" opacity="0.547154018" stroke-linecap="square"/>
      <path d="M29.5 136.5v287" stroke="#979797" stroke-width="2" opacity="0.5640625" stroke-linecap="square"/>
      <circle fill="#ABA292" opacity="0.766462054" cx="74.5" cy="202.5" r="7.5"/>
    </g>
    <path stroke="#979797" fill="#D8D8D8" d="M205 327h170.34l-6.88 108.26H242.9z"/>
    <path stroke="#979797" fill="#ECDCBD" d="M252 435h115v215H252zM204.48 327l47.27 108.97-69.75-2.05z"/>
    <path stroke="#979797" fill="#ECDCBD" d="M182 433l69.92 2.48-.48 215.35-69.08-4.57z"/>
    <g transform="translate(195 387)">
      <circle fill="#F5EAD4" cx="19" cy="19" r="19"/>
      <path fill="#4A4A4A" d="M18.5 3L20 7.58 19.43 15h-1.86L17 7.58zM34.5 19l-4.58 1.5-7.42-.57v-1.86l7.42-.57zM29.74 7.76l-2.18 4.3-5.65 4.84-1.3-1.31 4.83-5.65zM7.26 30.24l2.18-4.3 5.65-4.84 1.3 1.31-4.83 5.65zM2.5 19l4.58 1.5 7.42-.57v-1.86l-7.42-.57zM7.26 7.76l2.18 4.3 5.65 4.84 1.3-1.31-4.83-5.65zM29.74 30.24l-2.18-4.3-5.65-4.84-1.3 1.31 4.83 5.65zM18.5 35L17 30.42l.57-7.42h1.86l.57 7.42z"/>
      <circle fill="#4A4A4A" cx="19" cy="19" r="2"/>
    </g>
    <g transform="translate(187 451)">
      <ellipse fill="#F5EAD4" cx="29" cy="32.5" rx="29" ry="32.5"/>
      <path fill="#4A4A4A" d="M28.5 5l2.5 8.02L30.05 26h-3.1L26 13.02zM55 32.5L46.98 35 34 34.05v-3.1L46.98 30zM46.92 13.08l-3.9 7.44-9.85 8.5-2.19-2.19 8.5-9.85zM11.08 51.92l3.9-7.44 9.85-8.5 2.19 2.19-8.5 9.85zM3 32.5l8.02 2.5L24 34.05v-3.1L11.02 30zM11.08 13.08l3.9 7.44 9.85 8.5 2.19-2.19-8.5-9.85zM46.92 51.92l-3.9-7.44-9.85-8.5-2.19 2.19 8.5 9.85z"/>
      <path fill="#4A4A4A" d="M28.5 59L26 50.98 26.95 38h3.1L31 50.98z"/>
      <ellipse fill="#4A4A4A" cx="29" cy="32.5" rx="3" ry="3.5"/>
    </g>
    <g>
      <path d="M523 438h141v231c-31.03 4.93-54.3 7.4-69.81 7.4-15.52 0-39.25-2.47-71.19-7.4V438z" stroke="#979797" fill="#ECDCBD"/>
      <path d="M593.48 327l70.5 111c-30.53 5.91-53.25 8.87-68.15 8.87-14.9 0-40.18-1.56-75.83-4.67L593.48 327z" stroke="#979797" fill="#D8D8D8"/>
      <path stroke="#979797" fill="#ECDCBD" d="M367.46 432l155.05 4.66v231L367 649.86z"/>
      <path stroke="#979797" fill="#D8D8D8" d="M406.66 329.44l187.46-.44-73.05 111.79L368 435.55z"/>
      <path fill="#3D3935" d="M368 435.96L375.56 328l32.85.61z"/>
      <path fill="#3D3935" d="M403 0l28 329h-56z"/>
    </g>
    <g transform="translate(272 453)">
      <path d="M5.06 39c-.04-.66-.06-1.33-.06-2 0-12.15 6.72-22 15-22 8.28 0 15 9.85 15 22 0 .67-.02 1.34-.06 2H35v20H5V39h.06z" stroke="#F5EAD4" stroke-width="2"/>
      <path d="M47.04 31a3.09 3.09 0 0 1-.04-.5c0-3.04 4.48-5.5 10-5.5s10 2.46 10 5.5c0 .17-.01.34-.04.5H67v22H47V31h.04zM10.04 31a3.09 3.09 0 0 1-.04-.5c0-3.04 4.48-5.5 10-5.5s10 2.46 10 5.5c0 .17-.01.34-.04.5H30v22H10V31h.04z" fill="#373A41"/>
      <path d="M42.06 39c-.04-.66-.06-1.33-.06-2 0-12.15 6.72-22 15-22 8.28 0 15 9.85 15 22 0 .67-.02 1.34-.06 2H72v20H42V39h.06z" stroke="#F5EAD4" stroke-width="2"/>
      <path d="M.13 33C.04 32.18 0 31.34 0 30.5 0 13.66 17.24 0 38.5 0S77 13.66 77 30.5c0 .84-.04 1.68-.13 2.5H77v28H0V33h.13z" stroke="#F5EAD4" stroke-width="2"/>
      <circle fill="#373A41" opacity="0.686662946" cx="38.5" cy="11.5" r="7.5"/>
    </g>
    <g stroke="#F5EAD4">
      <g transform="translate(538 463)">
        <circle fill="#373A41" opacity="0.829575893" cx="14.5" cy="14.5" r="12.5"/>
        <path d="M15 35.01v-.35c0-3.74 3.26-8.66 7.13-8.66S29 30.92 29 34.66v29.23H15V35.01zM14.5 35v-.34c0-3.74-3.26-8.66-7.13-8.66S.5 30.92.5 34.66v29.22h14V35z" fill="#373A41" opacity="0.829999983"/>
        <path d="M.1 16a9.1 9.1 0 0 1-.1-1.4C0 8.3 6.76 0 14.77 0 22.77 0 29 8.3 29 14.6c0 .47-.04.94-.1 1.4h.1v48H0V16h.1z" stroke-width="2" opacity="0.829999983"/>
      </g>
      <g transform="translate(583 466)">
        <circle fill="#373A41" opacity="0.829575893" cx="14.5" cy="14.5" r="12.5"/>
        <path d="M15 35.01v-.35c0-3.74 3.26-8.66 7.13-8.66S29 30.92 29 34.66v29.23H15V35.01zM14.5 35v-.34c0-3.74-3.26-8.66-7.13-8.66S.5 30.92.5 34.66v29.22h14V35z" fill="#373A41" opacity="0.829999983"/>
        <path d="M.1 16a9.1 9.1 0 0 1-.1-1.4C0 8.3 6.76 0 14.77 0 22.77 0 29 8.3 29 14.6c0 .47-.04.94-.1 1.4h.1v48H0V16h.1z" stroke-width="2" opacity="0.829999983"/>
      </g>
      <g transform="translate(627 460)">
        <circle fill="#373A41" opacity="0.829575893" cx="14.5" cy="14.5" r="12.5"/>
        <path d="M15 35.01v-.35c0-3.74 3.26-8.66 7.13-8.66S29 30.92 29 34.66v29.23H15V35.01zM14.5 35v-.34c0-3.74-3.26-8.66-7.13-8.66S.5 30.92.5 34.66v29.22h14V35z" fill="#373A41" opacity="0.829999983"/>
        <path d="M.1 16a9.1 9.1 0 0 1-.1-1.4C0 8.3 6.76 0 14.77 0 22.77 0 29 8.3 29 14.6c0 .47-.04.94-.1 1.4h.1v48H0V16h.1z" stroke-width="2" opacity="0.829999983"/>
      </g>
      <g transform="translate(429 459)">
        <circle fill="#373A41" opacity="0.829575893" cx="14.5" cy="14.5" r="12.5"/>
        <path d="M15 35.01v-.35c0-3.74 3.26-8.66 7.13-8.66S29 30.92 29 34.66v29.23H15V35.01zM14.5 35v-.34c0-3.74-3.26-8.66-7.13-8.66S.5 30.92.5 34.66v29.22h14V35z" fill="#373A41" opacity="0.829999983"/>
        <path d="M.1 16a9.1 9.1 0 0 1-.1-1.4C0 8.3 6.76 0 14.77 0 22.77 0 29 8.3 29 14.6c0 .47-.04.94-.1 1.4h.1v48H0V16h.1z" stroke-width="2" opacity="0.829999983"/>
      </g>
      <g transform="translate(472 460)">
        <circle fill="#373A41" opacity="0.829575893" cx="14.5" cy="14.5" r="12.5"/>
        <path d="M15 35.01v-.35c0-3.74 3.26-8.66 7.13-8.66S29 30.92 29 34.66v29.23H15V35.01zM14.5 35v-.34c0-3.74-3.26-8.66-7.13-8.66S.5 30.92.5 34.66v29.22h14V35z" fill="#373A41" opacity="0.829999983"/>
        <path d="M.1 16a9.1 9.1 0 0 1-.1-1.4C0 8.3 6.76 0 14.77 0 22.77 0 29 8.3 29 14.6c0 .47-.04.94-.1 1.4h.1v48H0V16h.1z" stroke-width="2" opacity="0.829999983"/>
      </g>
      <g transform="translate(386 457)">
        <circle fill="#373A41" opacity="0.829575893" cx="14.5" cy="14.5" r="12.5"/>
        <path d="M15 35.01v-.35c0-3.74 3.26-8.66 7.13-8.66S29 30.92 29 34.66v29.23H15V35.01zM14.5 35v-.34c0-3.74-3.26-8.66-7.13-8.66S.5 30.92.5 34.66v29.22h14V35z" fill="#373A41" opacity="0.829999983"/>
        <path d="M.1 16a9.1 9.1 0 0 1-.1-1.4C0 8.3 6.76 0 14.77 0 22.77 0 29 8.3 29 14.6c0 .47-.04.94-.1 1.4h.1v48H0V16h.1z" stroke-width="2" opacity="0.829999983"/>
      </g>
    </g>
    <path d="M421.11 492.5c-54.86 22.27-101.2 99.27-127.28 204.8l-78.37-.29 205.75-238.1-.1 33.59z" stroke="#979797" fill="#F5EAD4"/>
    <path d="M466.11 495.71C412.8 519.45 367.75 601.53 342.4 714l-76.18-.3 200-253.8-.1 35.81z" stroke="#979797" fill="#F5EAD4"/>
    <path d="M522.4 501.8c-53.32 23.74-98.36 105.82-123.71 218.3l-76.18-.3 200-253.8-.1 35.8zM664.08 500.8c44.27 23.74 81.65 105.82 102.7 218.3l63.22-.3L664 465l.08 35.8zM575.7 507c-27.46 27.2-50.65 121.19-63.7 250l-39.24-.34 103-290.66-.05 41zM620.05 507c27.47 27.2 50.66 121.19 63.72 250l39.23-.34L620 466l.05 41z" stroke="#979797" fill="#F5EAD4"/>
    <g transform="translate(267 638)" fill="#2B5833" opacity="0.703180804">
      <ellipse cx="29.5" cy="28" rx="19.5" ry="18"/>
      <ellipse cx="54.5" cy="18" rx="19.5" ry="18"/>
      <ellipse cx="56.5" cy="51" rx="19.5" ry="18"/>
      <ellipse cx="29.5" cy="51" rx="19.5" ry="18"/>
      <ellipse cx="67.5" cy="37" rx="19.5" ry="18"/>
      <ellipse cx="90.5" cy="51" rx="19.5" ry="18"/>
      <ellipse cx="56.5" cy="85" rx="19.5" ry="18"/>
      <ellipse cx="37.5" cy="69" rx="19.5" ry="18"/>
      <ellipse cx="85.5" cy="74" rx="19.5" ry="18"/>
      <ellipse cx="68.5" cy="69" rx="19.5" ry="18"/>
      <ellipse cx="19.5" cy="51" rx="19.5" ry="18"/>
      <ellipse cx="83.5" cy="27" rx="19.5" ry="18"/>
      <ellipse cx="44.5" cy="44" rx="19.5" ry="18"/>
      <ellipse cx="27.5" cy="74" rx="19.5" ry="18"/>
    </g>
    <g transform="translate(347 654)" fill="#2B5833" opacity="0.703180804">
      <ellipse cx="29.5" cy="28" rx="19.5" ry="18"/>
      <ellipse cx="54.5" cy="18" rx="19.5" ry="18"/>
      <ellipse cx="56.5" cy="51" rx="19.5" ry="18"/>
      <ellipse cx="29.5" cy="51" rx="19.5" ry="18"/>
      <ellipse cx="67.5" cy="37" rx="19.5" ry="18"/>
      <ellipse cx="90.5" cy="51" rx="19.5" ry="18"/>
      <ellipse cx="56.5" cy="85" rx="19.5" ry="18"/>
      <ellipse cx="37.5" cy="69" rx="19.5" ry="18"/>
      <ellipse cx="85.5" cy="74" rx="19.5" ry="18"/>
      <ellipse cx="68.5" cy="69" rx="19.5" ry="18"/>
      <ellipse cx="19.5" cy="51" rx="19.5" ry="18"/>
      <ellipse cx="83.5" cy="27" rx="19.5" ry="18"/>
      <ellipse cx="44.5" cy="44" rx="19.5" ry="18"/>
      <ellipse cx="27.5" cy="74" rx="19.5" ry="18"/>
    </g>
    <g transform="translate(179 621)" fill="#2B5833" opacity="0.703180804">
      <ellipse cx="29.5" cy="28" rx="19.5" ry="18"/>
      <ellipse cx="54.5" cy="18" rx="19.5" ry="18"/>
      <ellipse cx="56.5" cy="51" rx="19.5" ry="18"/>
      <ellipse cx="29.5" cy="51" rx="19.5" ry="18"/>
      <ellipse cx="67.5" cy="37" rx="19.5" ry="18"/>
      <ellipse cx="90.5" cy="51" rx="19.5" ry="18"/>
      <ellipse cx="56.5" cy="85" rx="19.5" ry="18"/>
      <ellipse cx="37.5" cy="69" rx="19.5" ry="18"/>
      <ellipse cx="85.5" cy="74" rx="19.5" ry="18"/>
      <ellipse cx="68.5" cy="69" rx="19.5" ry="18"/>
      <ellipse cx="19.5" cy="51" rx="19.5" ry="18"/>
      <ellipse cx="83.5" cy="27" rx="19.5" ry="18"/>
      <ellipse cx="44.5" cy="44" rx="19.5" ry="18"/>
      <ellipse cx="27.5" cy="74" rx="19.5" ry="18"/>
    </g>
    <g transform="translate(16 587)" fill="#2B5833" opacity="0.703180804">
      <ellipse cx="29.5" cy="28" rx="19.5" ry="18"/>
      <ellipse cx="54.5" cy="18" rx="19.5" ry="18"/>
      <ellipse cx="56.5" cy="51" rx="19.5" ry="18"/>
      <ellipse cx="29.5" cy="51" rx="19.5" ry="18"/>
      <ellipse cx="67.5" cy="37" rx="19.5" ry="18"/>
      <ellipse cx="90.5" cy="51" rx="19.5" ry="18"/>
      <ellipse cx="56.5" cy="85" rx="19.5" ry="18"/>
      <ellipse cx="37.5" cy="69" rx="19.5" ry="18"/>
      <ellipse cx="85.5" cy="74" rx="19.5" ry="18"/>
      <ellipse cx="68.5" cy="69" rx="19.5" ry="18"/>
      <ellipse cx="19.5" cy="51" rx="19.5" ry="18"/>
      <ellipse cx="83.5" cy="27" rx="19.5" ry="18"/>
      <ellipse cx="44.5" cy="44" rx="19.5" ry="18"/>
      <ellipse cx="27.5" cy="74" rx="19.5" ry="18"/>
    </g>
    <g transform="translate(423 669)" fill="#2B5833" opacity="0.703180804">
      <ellipse cx="29.5" cy="28" rx="19.5" ry="18"/>
      <ellipse cx="54.5" cy="18" rx="19.5" ry="18"/>
      <ellipse cx="56.5" cy="51" rx="19.5" ry="18"/>
      <ellipse cx="29.5" cy="51" rx="19.5" ry="18"/>
      <ellipse cx="67.5" cy="37" rx="19.5" ry="18"/>
      <ellipse cx="90.5" cy="51" rx="19.5" ry="18"/>
      <ellipse cx="56.5" cy="85" rx="19.5" ry="18"/>
      <ellipse cx="37.5" cy="69" rx="19.5" ry="18"/>
      <ellipse cx="85.5" cy="74" rx="19.5" ry="18"/>
      <ellipse cx="68.5" cy="69" rx="19.5" ry="18"/>
      <ellipse cx="19.5" cy="51" rx="19.5" ry="18"/>
      <ellipse cx="83.5" cy="27" rx="19.5" ry="18"/>
      <ellipse cx="44.5" cy="44" rx="19.5" ry="18"/>
      <ellipse cx="27.5" cy="74" rx="19.5" ry="18"/>
    </g>
    <g transform="translate(400 600)" fill="#2B5833" opacity="0.703180804">
      <ellipse cx="29.5" cy="28" rx="19.5" ry="18"/>
      <ellipse cx="54.5" cy="18" rx="19.5" ry="18"/>
      <ellipse cx="56.5" cy="51" rx="19.5" ry="18"/>
      <ellipse cx="29.5" cy="51" rx="19.5" ry="18"/>
      <ellipse cx="67.5" cy="37" rx="19.5" ry="18"/>
      <ellipse cx="90.5" cy="51" rx="19.5" ry="18"/>
      <ellipse cx="56.5" cy="85" rx="19.5" ry="18"/>
      <ellipse cx="37.5" cy="69" rx="19.5" ry="18"/>
      <ellipse cx="85.5" cy="74" rx="19.5" ry="18"/>
      <ellipse cx="68.5" cy="69" rx="19.5" ry="18"/>
      <ellipse cx="19.5" cy="51" rx="19.5" ry="18"/>
      <ellipse cx="83.5" cy="27" rx="19.5" ry="18"/>
      <ellipse cx="44.5" cy="44" rx="19.5" ry="18"/>
      <ellipse cx="27.5" cy="74" rx="19.5" ry="18"/>
    </g>
    <g transform="translate(423 566)" fill="#2B5833" opacity="0.703180804">
      <ellipse cx="29.5" cy="28" rx="19.5" ry="18"/>
      <ellipse cx="54.5" cy="18" rx="19.5" ry="18"/>
      <ellipse cx="56.5" cy="51" rx="19.5" ry="18"/>
      <ellipse cx="29.5" cy="51" rx="19.5" ry="18"/>
      <ellipse cx="67.5" cy="37" rx="19.5" ry="18"/>
      <ellipse cx="90.5" cy="51" rx="19.5" ry="18"/>
      <ellipse cx="56.5" cy="85" rx="19.5" ry="18"/>
      <ellipse cx="37.5" cy="69" rx="19.5" ry="18"/>
      <ellipse cx="85.5" cy="74" rx="19.5" ry="18"/>
      <ellipse cx="68.5" cy="69" rx="19.5" ry="18"/>
      <ellipse cx="19.5" cy="51" rx="19.5" ry="18"/>
      <ellipse cx="83.5" cy="27" rx="19.5" ry="18"/>
      <ellipse cx="44.5" cy="44" rx="19.5" ry="18"/>
      <ellipse cx="27.5" cy="74" rx="19.5" ry="18"/>
    </g>
    <g transform="translate(457 605)" fill="#2B5833" opacity="0.703180804">
      <ellipse cx="29.5" cy="28" rx="19.5" ry="18"/>
      <ellipse cx="54.5" cy="18" rx="19.5" ry="18"/>
      <ellipse cx="56.5" cy="51" rx="19.5" ry="18"/>
      <ellipse cx="29.5" cy="51" rx="19.5" ry="18"/>
      <ellipse cx="67.5" cy="37" rx="19.5" ry="18"/>
      <ellipse cx="90.5" cy="51" rx="19.5" ry="18"/>
      <ellipse cx="56.5" cy="85" rx="19.5" ry="18"/>
      <ellipse cx="37.5" cy="69" rx="19.5" ry="18"/>
      <ellipse cx="85.5" cy="74" rx="19.5" ry="18"/>
      <ellipse cx="68.5" cy="69" rx="19.5" ry="18"/>
      <ellipse cx="19.5" cy="51" rx="19.5" ry="18"/>
      <ellipse cx="83.5" cy="27" rx="19.5" ry="18"/>
      <ellipse cx="44.5" cy="44" rx="19.5" ry="18"/>
      <ellipse cx="27.5" cy="74" rx="19.5" ry="18"/>
    </g>
    <g transform="translate(212 635)" fill="#2B5833" opacity="0.703180804">
      <ellipse cx="29.5" cy="28" rx="19.5" ry="18"/>
      <ellipse cx="54.5" cy="18" rx="19.5" ry="18"/>
      <ellipse cx="56.5" cy="51" rx="19.5" ry="18"/>
      <ellipse cx="29.5" cy="51" rx="19.5" ry="18"/>
      <ellipse cx="67.5" cy="37" rx="19.5" ry="18"/>
      <ellipse cx="90.5" cy="51" rx="19.5" ry="18"/>
      <ellipse cx="56.5" cy="85" rx="19.5" ry="18"/>
      <ellipse cx="37.5" cy="69" rx="19.5" ry="18"/>
      <ellipse cx="85.5" cy="74" rx="19.5" ry="18"/>
      <ellipse cx="68.5" cy="69" rx="19.5" ry="18"/>
      <ellipse cx="19.5" cy="51" rx="19.5" ry="18"/>
      <ellipse cx="83.5" cy="27" rx="19.5" ry="18"/>
      <ellipse cx="44.5" cy="44" rx="19.5" ry="18"/>
      <ellipse cx="27.5" cy="74" rx="19.5" ry="18"/>
    </g>
    <g transform="translate(322 654)" fill="#2B5833" opacity="0.703180804">
      <ellipse cx="29.5" cy="28" rx="19.5" ry="18"/>
      <ellipse cx="54.5" cy="18" rx="19.5" ry="18"/>
      <ellipse cx="56.5" cy="51" rx="19.5" ry="18"/>
      <ellipse cx="29.5" cy="51" rx="19.5" ry="18"/>
      <ellipse cx="67.5" cy="37" rx="19.5" ry="18"/>
      <ellipse cx="90.5" cy="51" rx="19.5" ry="18"/>
      <ellipse cx="56.5" cy="85" rx="19.5" ry="18"/>
      <ellipse cx="37.5" cy="69" rx="19.5" ry="18"/>
      <ellipse cx="85.5" cy="74" rx="19.5" ry="18"/>
      <ellipse cx="68.5" cy="69" rx="19.5" ry="18"/>
      <ellipse cx="19.5" cy="51" rx="19.5" ry="18"/>
      <ellipse cx="83.5" cy="27" rx="19.5" ry="18"/>
      <ellipse cx="44.5" cy="44" rx="19.5" ry="18"/>
      <ellipse cx="27.5" cy="74" rx="19.5" ry="18"/>
    </g>
    <g transform="translate(533 690)" fill="#2B5833" opacity="0.703180804">
      <ellipse cx="29.5" cy="28" rx="19.5" ry="18"/>
      <ellipse cx="54.5" cy="18" rx="19.5" ry="18"/>
      <ellipse cx="56.5" cy="51" rx="19.5" ry="18"/>
      <ellipse cx="29.5" cy="51" rx="19.5" ry="18"/>
      <ellipse cx="67.5" cy="37" rx="19.5" ry="18"/>
      <ellipse cx="90.5" cy="51" rx="19.5" ry="18"/>
      <ellipse cx="56.5" cy="85" rx="19.5" ry="18"/>
      <ellipse cx="37.5" cy="69" rx="19.5" ry="18"/>
      <ellipse cx="85.5" cy="74" rx="19.5" ry="18"/>
      <ellipse cx="68.5" cy="69" rx="19.5" ry="18"/>
      <ellipse cx="19.5" cy="51" rx="19.5" ry="18"/>
      <ellipse cx="83.5" cy="27" rx="19.5" ry="18"/>
      <ellipse cx="44.5" cy="44" rx="19.5" ry="18"/>
      <ellipse cx="27.5" cy="74" rx="19.5" ry="18"/>
    </g>
    <g transform="translate(478 690)" fill="#2B5833" opacity="0.703180804">
      <ellipse cx="29.5" cy="28" rx="19.5" ry="18"/>
      <ellipse cx="54.5" cy="18" rx="19.5" ry="18"/>
      <ellipse cx="56.5" cy="51" rx="19.5" ry="18"/>
      <ellipse cx="29.5" cy="51" rx="19.5" ry="18"/>
      <ellipse cx="67.5" cy="37" rx="19.5" ry="18"/>
      <ellipse cx="90.5" cy="51" rx="19.5" ry="18"/>
      <ellipse cx="56.5" cy="85" rx="19.5" ry="18"/>
      <ellipse cx="37.5" cy="69" rx="19.5" ry="18"/>
      <ellipse cx="85.5" cy="74" rx="19.5" ry="18"/>
      <ellipse cx="68.5" cy="69" rx="19.5" ry="18"/>
      <ellipse cx="19.5" cy="51" rx="19.5" ry="18"/>
      <ellipse cx="83.5" cy="27" rx="19.5" ry="18"/>
      <ellipse cx="44.5" cy="44" rx="19.5" ry="18"/>
      <ellipse cx="27.5" cy="74" rx="19.5" ry="18"/>
    </g>
    <g transform="translate(578 686)" fill="#2B5833" opacity="0.703180804">
      <ellipse cx="29.5" cy="28" rx="19.5" ry="18"/>
      <ellipse cx="54.5" cy="18" rx="19.5" ry="18"/>
      <ellipse cx="56.5" cy="51" rx="19.5" ry="18"/>
      <ellipse cx="29.5" cy="51" rx="19.5" ry="18"/>
      <ellipse cx="67.5" cy="37" rx="19.5" ry="18"/>
      <ellipse cx="90.5" cy="51" rx="19.5" ry="18"/>
      <ellipse cx="56.5" cy="85" rx="19.5" ry="18"/>
      <ellipse cx="37.5" cy="69" rx="19.5" ry="18"/>
      <ellipse cx="85.5" cy="74" rx="19.5" ry="18"/>
      <ellipse cx="68.5" cy="69" rx="19.5" ry="18"/>
      <ellipse cx="19.5" cy="51" rx="19.5" ry="18"/>
      <ellipse cx="83.5" cy="27" rx="19.5" ry="18"/>
      <ellipse cx="44.5" cy="44" rx="19.5" ry="18"/>
      <ellipse cx="27.5" cy="74" rx="19.5" ry="18"/>
    </g>
    <g transform="translate(0 579)" fill="#2B5833" opacity="0.703180804">
      <ellipse cx="29.5" cy="28" rx="19.5" ry="18"/>
      <ellipse cx="54.5" cy="18" rx="19.5" ry="18"/>
      <ellipse cx="56.5" cy="51" rx="19.5" ry="18"/>
      <ellipse cx="29.5" cy="51" rx="19.5" ry="18"/>
      <ellipse cx="67.5" cy="37" rx="19.5" ry="18"/>
      <ellipse cx="90.5" cy="51" rx="19.5" ry="18"/>
      <ellipse cx="56.5" cy="85" rx="19.5" ry="18"/>
      <ellipse cx="37.5" cy="69" rx="19.5" ry="18"/>
      <ellipse cx="85.5" cy="74" rx="19.5" ry="18"/>
      <ellipse cx="68.5" cy="69" rx="19.5" ry="18"/>
      <ellipse cx="19.5" cy="51" rx="19.5" ry="18"/>
      <ellipse cx="83.5" cy="27" rx="19.5" ry="18"/>
      <ellipse cx="44.5" cy="44" rx="19.5" ry="18"/>
      <ellipse cx="27.5" cy="74" rx="19.5" ry="18"/>
    </g>
    <g transform="translate(780 627)" fill="#2B5833" opacity="0.703180804">
      <ellipse cx="21" cy="25.5" rx="14" ry="16.5"/>
      <ellipse cx="38" cy="16.5" rx="14" ry="16.5"/>
      <ellipse cx="40" cy="46.5" rx="14" ry="16.5"/>
      <ellipse cx="21" cy="46.5" rx="14" ry="16.5"/>
      <ellipse cx="47" cy="33.5" rx="14" ry="16.5"/>
      <ellipse cx="63" cy="46.5" rx="14" ry="16.5"/>
      <ellipse cx="40" cy="77.5" rx="14" ry="16.5"/>
      <ellipse cx="27" cy="63.5" rx="14" ry="16.5"/>
      <ellipse cx="60" cy="67.5" rx="14" ry="16.5"/>
      <ellipse cx="48" cy="63.5" rx="14" ry="16.5"/>
      <ellipse cx="14" cy="46.5" rx="14" ry="16.5"/>
      <ellipse cx="59" cy="24.5" rx="14" ry="16.5"/>
      <ellipse cx="32" cy="40.5" rx="14" ry="16.5"/>
      <ellipse cx="20" cy="67.5" rx="14" ry="16.5"/>
    </g>
    <g transform="translate(81 642)" fill="#B28190" opacity="0.900446429">
      <ellipse cx="26" cy="14.5" rx="9" ry="10.5"/>
      <ellipse cx="37" cy="10.5" rx="9" ry="10.5"/>
      <ellipse cx="44" cy="10.5" rx="9" ry="10.5"/>
      <ellipse cx="54" cy="10.5" rx="9" ry="10.5"/>
      <ellipse cx="25" cy="26.5" rx="9" ry="10.5"/>
      <ellipse cx="37" cy="25.5" rx="9" ry="10.5"/>
      <ellipse cx="46" cy="25.5" rx="9" ry="10.5"/>
      <ellipse cx="55" cy="25.5" rx="9" ry="10.5"/>
      <ellipse cx="64" cy="15.5" rx="9" ry="10.5"/>
      <ellipse cx="55" cy="14.5" rx="9" ry="10.5"/>
      <ellipse cx="67" cy="10.5" rx="9" ry="10.5"/>
      <ellipse cx="73" cy="10.5" rx="9" ry="10.5"/>
      <ellipse cx="84" cy="10.5" rx="9" ry="10.5"/>
      <ellipse cx="58" cy="23.5" rx="9" ry="10.5"/>
      <ellipse cx="67" cy="25.5" rx="9" ry="10.5"/>
      <ellipse cx="76" cy="25.5" rx="9" ry="10.5"/>
      <ellipse cx="85" cy="25.5" rx="9" ry="10.5"/>
      <ellipse cx="94" cy="15.5" rx="9" ry="10.5"/>
      <ellipse cx="25" cy="39.5" rx="9" ry="10.5"/>
      <ellipse cx="36" cy="36.5" rx="9" ry="10.5"/>
      <ellipse cx="43" cy="36.5" rx="9" ry="10.5"/>
      <ellipse cx="53" cy="36.5" rx="9" ry="10.5"/>
      <ellipse cx="27" cy="49.5" rx="9" ry="10.5"/>
      <ellipse cx="36" cy="50.5" rx="9" ry="10.5"/>
      <ellipse cx="45" cy="50.5" rx="9" ry="10.5"/>
      <ellipse cx="54" cy="50.5" rx="9" ry="10.5"/>
      <ellipse cx="63" cy="41.5" rx="9" ry="10.5"/>
      <ellipse cx="67" cy="39.5" rx="9" ry="10.5"/>
      <ellipse cx="78" cy="36.5" rx="9" ry="10.5"/>
      <ellipse cx="85" cy="36.5" rx="9" ry="10.5"/>
      <ellipse cx="95" cy="36.5" rx="9" ry="10.5"/>
      <ellipse cx="69" cy="49.5" rx="9" ry="10.5"/>
      <ellipse cx="78" cy="50.5" rx="9" ry="10.5"/>
      <ellipse cx="87" cy="50.5" rx="9" ry="10.5"/>
      <ellipse cx="96" cy="50.5" rx="9" ry="10.5"/>
      <ellipse cx="105" cy="41.5" rx="9" ry="10.5"/>
      <ellipse cx="93" cy="25.5" rx="9" ry="10.5"/>
      <ellipse cx="104" cy="21.5" rx="9" ry="10.5"/>
      <ellipse cx="111" cy="21.5" rx="9" ry="10.5"/>
      <ellipse cx="9" cy="31.5" rx="9" ry="10.5"/>
      <ellipse cx="95" cy="34.5" rx="9" ry="10.5"/>
      <ellipse cx="104" cy="36.5" rx="9" ry="10.5"/>
      <ellipse cx="113" cy="36.5" rx="9" ry="10.5"/>
      <ellipse cx="16" cy="19.5" rx="9" ry="10.5"/>
      <ellipse cx="16" cy="44.5" rx="9" ry="10.5"/>
    </g>
    <path d="M28.56 674.45L523.17 775.4H709.7l132.33-28.3 14.73-95.42v188.77c0 8.75-4.91 15.46-14.73 20.13-14.73 7-74.43 25.26-132.33 34.07-57.91 8.8-52.04 8.8-186.53 0-89.66-5.87-254.53-34.8-494.6-86.8v-133.4z" stroke="#979797" fill="#ECDCBD"/>
    <g transform="translate(630 682)" fill="#2B5833" opacity="0.703180804">
      <ellipse cx="29.5" cy="28" rx="19.5" ry="18"/>
      <ellipse cx="54.5" cy="18" rx="19.5" ry="18"/>
      <ellipse cx="56.5" cy="51" rx="19.5" ry="18"/>
      <ellipse cx="29.5" cy="51" rx="19.5" ry="18"/>
      <ellipse cx="67.5" cy="37" rx="19.5" ry="18"/>
      <ellipse cx="90.5" cy="51" rx="19.5" ry="18"/>
      <ellipse cx="56.5" cy="85" rx="19.5" ry="18"/>
      <ellipse cx="37.5" cy="69" rx="19.5" ry="18"/>
      <ellipse cx="85.5" cy="74" rx="19.5" ry="18"/>
      <ellipse cx="68.5" cy="69" rx="19.5" ry="18"/>
      <ellipse cx="19.5" cy="51" rx="19.5" ry="18"/>
      <ellipse cx="83.5" cy="27" rx="19.5" ry="18"/>
      <ellipse cx="44.5" cy="44" rx="19.5" ry="18"/>
      <ellipse cx="27.5" cy="74" rx="19.5" ry="18"/>
    </g>
    <g transform="translate(663 686)" fill="#2B5833" opacity="0.703180804">
      <ellipse cx="29.5" cy="28" rx="19.5" ry="18"/>
      <ellipse cx="54.5" cy="18" rx="19.5" ry="18"/>
      <ellipse cx="56.5" cy="51" rx="19.5" ry="18"/>
      <ellipse cx="29.5" cy="51" rx="19.5" ry="18"/>
      <ellipse cx="67.5" cy="37" rx="19.5" ry="18"/>
      <ellipse cx="90.5" cy="51" rx="19.5" ry="18"/>
      <ellipse cx="56.5" cy="85" rx="19.5" ry="18"/>
      <ellipse cx="37.5" cy="69" rx="19.5" ry="18"/>
      <ellipse cx="85.5" cy="74" rx="19.5" ry="18"/>
      <ellipse cx="68.5" cy="69" rx="19.5" ry="18"/>
      <ellipse cx="19.5" cy="51" rx="19.5" ry="18"/>
      <ellipse cx="83.5" cy="27" rx="19.5" ry="18"/>
      <ellipse cx="44.5" cy="44" rx="19.5" ry="18"/>
      <ellipse cx="27.5" cy="74" rx="19.5" ry="18"/>
    </g>
    <g transform="translate(740 668)" fill="#2B5833" opacity="0.703180804">
      <ellipse cx="29.5" cy="28" rx="19.5" ry="18"/>
      <ellipse cx="54.5" cy="18" rx="19.5" ry="18"/>
      <ellipse cx="56.5" cy="51" rx="19.5" ry="18"/>
      <ellipse cx="29.5" cy="51" rx="19.5" ry="18"/>
      <ellipse cx="67.5" cy="37" rx="19.5" ry="18"/>
      <ellipse cx="90.5" cy="51" rx="19.5" ry="18"/>
      <ellipse cx="56.5" cy="85" rx="19.5" ry="18"/>
      <ellipse cx="37.5" cy="69" rx="19.5" ry="18"/>
      <ellipse cx="85.5" cy="74" rx="19.5" ry="18"/>
      <ellipse cx="68.5" cy="69" rx="19.5" ry="18"/>
      <ellipse cx="19.5" cy="51" rx="19.5" ry="18"/>
      <ellipse cx="83.5" cy="27" rx="19.5" ry="18"/>
      <ellipse cx="44.5" cy="44" rx="19.5" ry="18"/>
      <ellipse cx="27.5" cy="74" rx="19.5" ry="18"/>
    </g>
  </g>
</svg>